HIERARCHY
ROOT Hips
{
   OFFSET 0.00000 0.00000 0.00000
   CHANNELS 6 Xposition Yposition Zposition Zrotation Xrotation Yrotation
   JOINT Spine
   {
      OFFSET 0.000000 11.890501 0.000000
      CHANNELS 3 Zrotation Xrotation Yrotation
      JOINT Spine1
      {
         OFFSET -0.000000 25.657401 0.127660
         CHANNELS 3 Zrotation Xrotation Yrotation
         JOINT HEad
         {
            OFFSET 0.000000 8.734161 0.011340
            CHANNELS 3 Zrotation Xrotation Yrotation
            End Site
            {
               OFFSET -0.290000 12.774200 2.513950
            }
         }
         JOINT LeftShoulder1
         {
            OFFSET 8.990000 -0.362250 -0.220000
            CHANNELS 3 Zrotation Xrotation Yrotation
            JOINT LeftArm
            {
               OFFSET 10.282700 -0.003380 0.322120
               CHANNELS 3 Zrotation Xrotation Yrotation
               JOINT LeftForeArm
               {
                  OFFSET 32.766900 0.099140 -1.424340
                  CHANNELS 3 Zrotation Xrotation Yrotation
                  JOINT LeftHand
                  {
                     OFFSET 27.564301 0.085360 1.022160
                     CHANNELS 3 Zrotation Xrotation Yrotation
                     End Site
                     {
                        OFFSET 16.744301 -0.600000 1.502910
                     }
                  }
               }
            }
         }
         JOINT RightShoulder
         {
            OFFSET -8.990000 -0.362250 -0.220000
            CHANNELS 3 Zrotation Xrotation Yrotation
            JOINT RightArm
            {
               OFFSET -10.282700 -0.003380 0.322120
               CHANNELS 3 Zrotation Xrotation Yrotation
               JOINT RightForeArm
               {
                  OFFSET -32.897098 0.099140 -1.424340
                  CHANNELS 3 Zrotation Xrotation Yrotation
                  JOINT RightHand
                  {
                     OFFSET -27.492101 0.085360 1.022160
                     CHANNELS 3 Zrotation Xrotation Yrotation
                     End Site
                     {
                        OFFSET -16.631201 -0.600000 1.502910
                     }
                  }
               }
            }
         }
      }
   }
   JOINT LeftUpLeg
   {
      OFFSET 8.945800 -8.667070 0.101650
      CHANNELS 3 Zrotation Xrotation Yrotation
      JOINT LeftLeg
      {
         OFFSET 0.000000 -44.422697 1.372700
         CHANNELS 3 Zrotation Xrotation Yrotation
         JOINT LeftFoot
         {
            OFFSET -0.253550 -42.092399 -1.460590
            CHANNELS 3 Zrotation Xrotation Yrotation
            JOINT LeftToes
            {
               OFFSET -0.040000 -4.415090 8.499099
               CHANNELS 3 Zrotation Xrotation Yrotation
               End Site
               {
                  OFFSET 0.080000 -0.047450 9.779790
               }
            }
         }
      }
   }
   JOINT RightUpLeg
   {
      OFFSET -8.945800 -8.667070 0.101650
      CHANNELS 3 Zrotation Xrotation Yrotation
      JOINT RightLeg
      {
         OFFSET 0.000000 -44.422697 1.372700
         CHANNELS 3 Zrotation Xrotation Yrotation
         JOINT RightFoot
         {
            OFFSET 0.253550 -42.092399 -1.460590
            CHANNELS 3 Zrotation Xrotation Yrotation
            JOINT RightToes
            {
               OFFSET 0.040000 -4.415090 8.499099
               CHANNELS 3 Zrotation Xrotation Yrotation
               End Site
               {
                  OFFSET -0.080000 -0.137450 9.779790
               }
            }
         }
      }
   }
}
MOTION
Frames: 10
Frame Time: 0.016670
41.846856 96.860627 11.143882 17.873862 22.974260 129.101326 -13.303834 39.484910 35.711938 19.587362 26.899245 -47.204247 -7.948384 2.460887 15.720710 -18.766025 -27.782493 -3.808563 -126.500445 -14.102578 -134.422371 -78.495232 56.493707 23.331241 -19.963106 -8.045195 -49.148730 -49.184838 34.391672 69.722817 133.867555 132.019688 166.123970 5.039545 208.006690 80.130755 -19.365780 -17.972528 31.079772 6.905852 14.977198 -0.812273 -13.784935 11.165448 135.111619 -14.614469 43.008356 -8.366261 28.672649 -9.748787 -35.665711 -8.035915 7.202563 9.296167 14.186853 13.145384 13.519630 -45.701117 16.572773 14.766475 23.767742 -9.121571 -40.746276
41.869706 97.196644 11.735811 16.201279 29.638295 129.025757 -20.514854 41.821221 38.333665 19.617946 27.276270 -46.142931 -16.151063 -1.547372 14.166410 -16.808804 -28.910791 -6.648854 -118.954902 -23.208308 -128.170262 -53.106879 52.340501 -5.613860 -20.494485 -8.841859 -48.860322 -53.075501 35.462971 73.452667 131.238670 133.329145 164.628350 3.355554 207.812412 81.702655 -32.903050 -14.698591 21.667235 2.911002 14.038660 3.756305 -17.582743 18.688277 137.229360 -17.662415 43.561628 -7.423805 32.005805 -12.877476 -41.354944 -13.453978 9.441104 12.188629 9.618841 15.363496 12.057919 -33.962842 16.097052 13.073529 12.880077 -8.421884 -39.767349
42.059187 97.424572 12.385509 14.814146 38.434509 124.891621 -26.613687 42.167354 39.513194 19.027584 27.455926 -46.074383 -25.409957 -4.962043 13.161856 -16.199861 -29.767225 -8.084809 -107.624131 -38.393856 -119.946277 -32.195169 43.755490 -24.848908 -20.844358 -11.708209 -49.058226 -56.877786 36.405311 76.112384 130.120650 132.624010 162.341084 5.036055 208.341137 87.343619 -12.671488 -22.004272 42.840903 -3.340398 14.609517 9.802185 -21.889218 25.297528 134.347827 -19.402180 44.873008 -7.163492 32.298701 -13.489461 -41.258772 -20.961446 11.542986 16.172727 5.741121 17.575479 10.213404 -24.219718 15.963171 11.597523 1.295172 -7.477874 -38.180293
42.362871 97.585448 12.868328 14.796980 45.211157 120.039550 -32.293561 41.203762 41.928967 16.445422 30.576892 -44.043665 -34.085622 -8.406342 12.468572 -16.358962 -31.118612 -13.136418 -93.894371 -50.550104 -106.563307 -20.886705 30.622600 -32.639548 -20.184674 -6.593446 -36.708715 -64.168678 37.353584 80.418449 130.589474 132.130351 159.071226 2.586649 209.798604 87.574097 -25.071997 -25.894921 37.613206 -8.104983 13.806912 15.773198 -23.974121 31.281447 127.321556 -23.629060 46.226437 -8.564645 23.585386 -18.377886 -49.468191 -26.998916 11.966938 19.246472 3.838037 19.009118 8.020397 -15.105665 16.918479 10.590556 -10.493369 -6.576695 -36.739533
42.678127 97.676095 13.330443 16.279530 49.810538 114.459907 -38.141023 40.215273 43.209600 14.523018 33.866144 -40.640298 -41.674604 -12.455290 12.054431 -17.803009 -31.271936 -18.829220 -76.572233 -61.916833 -89.881239 -16.914393 17.660885 -34.419587 -24.826409 -18.037973 -54.806760 -70.713502 38.177657 85.764431 132.118658 130.052293 154.938402 1.497833 209.748689 88.950264 -17.545325 -22.348715 39.120482 -9.422702 11.908617 24.012773 -22.727577 37.561147 119.734186 -29.551896 46.191623 -8.582366 33.877359 -16.745011 -39.256482 -32.907875 13.457472 21.707091 5.555872 16.042357 5.188557 -8.515840 17.411890 9.848839 -22.215025 -7.265509 -34.895197
43.027939 97.696589 13.804165 18.295681 52.761169 109.793645 -44.310644 38.235174 43.350934 13.316016 34.278660 -36.012463 -46.657733 -16.174019 11.645864 -20.508840 -32.453036 -23.583248 -57.579594 -69.577423 -70.717176 -18.831081 1.894582 -31.966194 -26.117395 -10.151594 -31.901252 -76.792261 37.211192 90.657374 134.121215 126.599933 150.803569 5.515545 209.330613 88.509006 -27.065292 -22.367282 35.344795 -9.260335 9.438830 31.250205 -16.642004 39.645307 109.277583 -27.980326 45.470915 -11.593644 22.774892 -26.816658 -45.672269 -37.193781 14.343500 23.977905 6.892504 13.658664 2.805515 -1.454736 18.083030 9.005271 -33.614916 -7.933875 -33.412541
43.401121 97.564639 14.504738 21.001609 57.415246 107.890577 -48.801374 36.393956 41.787838 12.387682 34.423580 -31.743366 -49.920787 -19.621843 11.413923 -24.317338 -33.199197 -26.734262 -38.038717 -70.136241 -51.585485 -23.202040 -13.553777 -32.037658 -27.341459 -21.048005 -41.057831 -82.257027 37.177304 94.887208 136.743365 122.207725 147.071895 9.330415 208.186010 89.873787 -22.149875 -18.660394 36.754672 -7.665426 7.926096 40.035905 -11.565799 41.356608 100.344099 -27.476236 43.961481 -14.408508 17.375641 -29.698434 -44.207160 -42.211768 16.782128 26.346710 7.333279 13.452621 0.753570 5.591391 18.830610 7.802963 -44.671216 -8.798676 -32.438498
43.901548 97.117060 15.334279 21.939396 60.357098 105.350928 -50.528151 36.821406 39.376235 10.157239 33.846811 -28.220492 -51.283908 -20.067791 11.200049 -29.250377 -35.510546 -29.108494 -21.995231 -65.799276 -34.736068 -27.038777 -30.901330 -33.773732 -34.211605 -18.696072 -19.253166 -85.880879 36.411875 97.171025 140.212568 118.487144 144.096132 10.930208 205.292305 88.012718 -27.484328 -19.532167 35.002530 -4.318321 2.947023 47.926471 -3.882584 41.956913 92.477169 -27.100319 43.351095 -16.055429 17.369410 -30.291684 -44.738897 -46.613060 16.312877 28.393621 8.697658 13.300684 -0.762397 13.716751 18.234341 6.983388 -54.924362 -9.787909 -32.675519
44.357199 96.325367 16.265462 22.349870 60.764614 106.002104 -53.416857 38.312249 36.174338 9.595366 32.457831 -24.547188 -52.380106 -18.906182 11.325727 -31.768111 -37.965115 -32.301747 -8.684016 -56.866482 -23.270180 -31.362221 -45.173539 -37.502414 -36.533678 -27.463832 -26.719965 -89.036037 36.114386 98.943063 143.244435 115.416181 140.891202 11.317977 201.818880 86.199521 -25.051751 -18.475761 32.457455 1.449523 -2.370914 58.237430 5.868137 40.081148 85.174324 -28.985844 40.781765 -17.748235 25.848559 -33.366512 -43.197736 -47.625475 17.029641 31.803628 11.743066 13.807088 0.245938 -7.994549 16.754422 8.219504 -33.461725 -11.372367 -33.710272
44.694499 95.235737 16.956625 22.565856 62.474757 107.432763 -48.098855 37.321663 33.417257 7.657544 37.397369 -21.319356 -52.176802 -14.999020 11.838241 -35.384300 -36.141604 -36.547946 -0.005618 -41.283692 -13.009992 -38.779424 -54.897847 -46.722189 -37.158596 -22.178358 -21.838500 -88.640733 36.446665 99.999686 148.847908 112.914331 139.928501 8.285428 195.466600 80.169994 -30.077257 -19.564841 24.549530 7.264188 -6.926285 68.781009 12.678432 35.214560 76.704896 -28.186014 40.206629 -18.816613 34.409380 -32.266087 -40.819871 -49.429826 18.191121 34.405077 15.169189 13.703609 0.976192 -29.420753 16.619677 9.235373 -11.840480 -12.474897 -35.185081
